<svg width="158" height="89" viewBox="0 0 158 89" fill="none" xmlns="http://www.w3.org/2000/svg">
<path d="M10.889 88.7279V72.8801H14.564V88.7279H10.889ZM0 88.7279V72.8801H3.67502V88.7279H0ZM3.4028 82.2303V79.1287H11.1612V82.2303H3.4028ZM16.234 88.7279L23.3118 72.8801H26.9414L34.0419 88.7279H30.1854L24.378 74.7365H25.8298L19.9997 88.7279H16.234ZM19.7729 85.332L20.7483 82.5473H28.915L29.9132 85.332H19.7729ZM39.5894 88.7279L32.7385 72.8801H36.7084L42.6973 86.9168H40.3607L46.4404 72.8801H50.0927L43.2191 88.7279H39.5894ZM51.4187 88.7279V72.8801H63.4192V75.8233H55.071V85.7848H63.7141V88.7279H51.4187ZM54.7988 82.1171V79.2645H62.4437V82.1171H54.7988ZM66.6382 88.7279V72.8801H69.678L79.047 84.2905H77.5725V72.8801H81.2021V88.7279H78.185L68.7933 77.3175H70.2678V88.7279H66.6382ZM84.9592 88.7279V72.8801H88.6342V85.7395H96.5967V88.7279H84.9592ZM98.6502 88.7279V72.8801H110.651V75.8233H102.303V85.7848H110.946V88.7279H98.6502ZM102.03 82.1171V79.2645H109.675V82.1171H102.03ZM111.783 88.7279L118.86 72.8801H122.49L129.591 88.7279H125.734L119.927 74.7365H121.379L115.548 88.7279H111.783ZM115.322 85.332L116.297 82.5473H124.464L125.462 85.332H115.322ZM136.456 88.9996C135.185 88.9996 133.968 88.8336 132.803 88.5015C131.639 88.1544 130.701 87.7091 129.99 87.1658L131.238 84.4037C131.919 84.8867 132.72 85.2867 133.643 85.6036C134.58 85.9055 135.526 86.0564 136.478 86.0564C137.204 86.0564 137.787 85.9885 138.225 85.8527C138.679 85.7017 139.012 85.498 139.223 85.2414C139.435 84.9848 139.541 84.6905 139.541 84.3585C139.541 83.9358 139.375 83.6038 139.042 83.3623C138.709 83.1057 138.271 82.902 137.726 82.751C137.182 82.585 136.577 82.4341 135.911 82.2982C135.261 82.1473 134.603 81.9662 133.938 81.7549C133.287 81.5436 132.69 81.2719 132.146 80.9398C131.601 80.6078 131.155 80.1701 130.807 79.6267C130.474 79.0834 130.308 78.3891 130.308 77.5439C130.308 76.6383 130.55 75.8157 131.034 75.0761C131.533 74.3215 132.274 73.7253 133.257 73.2876C134.255 72.8348 135.503 72.6084 137 72.6084C137.998 72.6084 138.981 72.7291 139.949 72.9706C140.917 73.197 141.772 73.5442 142.513 74.0121L141.379 76.7968C140.637 76.3742 139.896 76.0647 139.155 75.8685C138.414 75.6572 137.688 75.5516 136.978 75.5516C136.267 75.5516 135.684 75.6346 135.231 75.8006C134.777 75.9666 134.452 76.1855 134.255 76.4572C134.059 76.7137 133.96 77.0156 133.96 77.3628C133.96 77.7703 134.127 78.1023 134.459 78.3589C134.792 78.6004 135.231 78.7966 135.775 78.9475C136.32 79.0985 136.917 79.2494 137.567 79.4003C138.233 79.5513 138.891 79.7248 139.541 79.9211C140.206 80.1173 140.811 80.3814 141.356 80.7134C141.9 81.0455 142.339 81.4832 142.672 82.0266C143.019 82.5699 143.193 83.2567 143.193 84.0868C143.193 84.9773 142.944 85.7923 142.445 86.5319C141.946 87.2714 141.197 87.8676 140.199 88.3204C139.216 88.7732 137.968 88.9996 136.456 88.9996ZM145.705 88.7279V72.8801H157.705V75.8233H149.357V85.7848H158V88.7279H145.705ZM149.085 82.1171V79.2645H156.73V82.1171H149.085Z" fill="white"/>
<path d="M73.519 25.0903C84.1445 9.33918 104.77 19.0075 101.958 34.6031C120.709 32.8864 121.646 55.4981 106.958 58.3064H55.0808C38.8301 53.7829 43.6741 32.4188 59.6122 34.6031C58.831 25.0903 65.8625 21.5026 73.519 25.0903Z" stroke="white" stroke-width="4.64769"/>
<path d="M86.2697 1.0757L116.475 20.4464C117.084 20.8369 117.452 21.5095 117.452 22.2319V22.9792C117.452 24.648 115.612 25.6639 114.195 24.7772L86.1327 7.20636L42.9391 30.3669C41.5596 31.1067 39.8792 30.1548 39.8081 28.5936L39.762 27.5789C39.7249 26.7681 40.1547 26.007 40.8688 25.6186L86.0287 1.06698L86.1518 1L86.2697 1.0757Z" fill="white" stroke="white" stroke-width="0.412704"/>
</svg>
