<svg width="152" height="84" viewBox="0 0 152 84" fill="none" xmlns="http://www.w3.org/2000/svg">
<path d="M10.4755 83.2935V68.0168H14.0109V83.2935H10.4755ZM0 83.2935V68.0168H3.53547V83.2935H0ZM3.27358 77.03V74.0402H10.7373V77.03H3.27358ZM15.6175 83.2935L22.4265 68.0168H25.9183L32.7492 83.2935H29.0391L23.4522 69.8063H24.849L19.2402 83.2935H15.6175ZM19.022 80.0199L19.9604 77.3356H27.817L28.7773 80.0199H19.022ZM38.086 83.2935L31.4952 68.0168H35.3144L41.0759 81.5476H38.8281L44.6768 68.0168H48.1905L41.5779 83.2935H38.086ZM49.4661 83.2935V68.0168H61.0109V70.8539H52.9797V80.4564H61.2946V83.2935H49.4661ZM52.7178 76.9209V74.1711H60.0724V76.9209H52.7178ZM64.1076 83.2935V68.0168H67.032L76.0452 79.016H74.6267V68.0168H78.1185V83.2935H75.2159L66.1809 72.2943H67.5994V83.2935H64.1076ZM81.7329 83.2935V68.0168H85.2683V80.4127H92.9285V83.2935H81.7329ZM94.904 83.2935V68.0168H106.449V70.8539H98.4177V80.4564H106.733V83.2935H94.904ZM98.1558 76.9209V74.1711H105.51V76.9209H98.1558ZM107.538 83.2935L114.347 68.0168H117.839L124.669 83.2935H120.959L115.373 69.8063H116.769L111.161 83.2935H107.538ZM110.942 80.0199L111.881 77.3356H119.737L120.698 80.0199H110.942ZM131.274 83.5554C130.052 83.5554 128.881 83.3953 127.76 83.0752C126.64 82.7406 125.738 82.3114 125.054 81.7876L126.254 79.1251C126.909 79.5907 127.68 79.9762 128.568 80.2818C129.47 80.5728 130.379 80.7183 131.296 80.7183C131.994 80.7183 132.554 80.6528 132.976 80.5218C133.413 80.3764 133.733 80.1799 133.936 79.9326C134.14 79.6853 134.242 79.4016 134.242 79.0815C134.242 78.6741 134.082 78.354 133.762 78.1212C133.442 77.8739 133.02 77.6775 132.496 77.532C131.972 77.3719 131.39 77.2264 130.75 77.0955C130.125 76.95 129.492 76.7754 128.851 76.5717C128.226 76.368 127.651 76.1061 127.127 75.7861C126.604 75.466 126.174 75.0441 125.84 74.5203C125.52 73.9965 125.36 73.3273 125.36 72.5125C125.36 71.6395 125.592 70.8466 126.058 70.1337C126.538 69.4062 127.251 68.8315 128.197 68.4096C129.157 67.9731 130.357 67.7549 131.798 67.7549C132.758 67.7549 133.704 67.8713 134.635 68.1041C135.566 68.3223 136.388 68.6569 137.101 69.108L136.01 71.7923C135.297 71.3849 134.584 71.0867 133.871 70.8975C133.158 70.6938 132.46 70.592 131.776 70.592C131.092 70.592 130.532 70.672 130.095 70.832C129.659 70.9921 129.346 71.2031 129.157 71.4649C128.968 71.7123 128.873 72.0033 128.873 72.3379C128.873 72.7307 129.033 73.0508 129.353 73.2982C129.674 73.5309 130.095 73.7201 130.619 73.8656C131.143 74.0111 131.718 74.1566 132.343 74.3021C132.983 74.4475 133.616 74.6149 134.242 74.804C134.882 74.9931 135.464 75.2478 135.988 75.5678C136.512 75.8879 136.934 76.3098 137.254 76.8336C137.588 77.3574 137.756 78.0194 137.756 78.8196C137.756 79.678 137.516 80.4637 137.035 81.1766C136.555 81.8895 135.835 82.4642 134.875 82.9006C133.929 83.3371 132.729 83.5554 131.274 83.5554ZM140.171 83.2935V68.0168H151.716V70.8539H143.685V80.4564H152V83.2935H140.171ZM143.423 76.9209V74.1711H150.778V76.9209H143.423Z" fill="#004542"/>
<path d="M70.7279 24.2221C80.9499 9.03855 100.793 18.3585 98.0869 33.3919C116.125 31.7372 117.027 53.534 102.897 56.2411H52.9899C37.3563 51.8806 42.0164 31.2864 57.3492 33.3919C56.5977 24.2221 63.3622 20.7637 70.7279 24.2221Z" stroke="#004542" stroke-width="5.12022"/>
<path d="M82.9938 1.07297L112.052 19.7456C112.638 20.122 112.992 20.7704 112.992 21.4667V22.1871C112.992 23.7957 111.222 24.7751 109.859 23.9203L82.8619 6.98269L41.3086 29.3085C39.9815 30.0216 38.3649 29.1041 38.2965 27.5992L38.2521 26.621C38.2164 25.8394 38.63 25.1058 39.317 24.7314L82.7619 1.06456L82.8803 1L82.9938 1.07297Z" fill="#004542" stroke="#004542" stroke-width="0.454664"/>
</svg>
